<?xml version="1.0" standalone="no"?>
<!DOCTYPE svg PUBLIC "-//W3C//DTD SVG 20010904//EN"
 "http://www.w3.org/TR/2001/REC-SVG-20010904/DTD/svg10.dtd">
<svg version="1.0" xmlns="http://www.w3.org/2000/svg"
 width="2757.000000pt" height="1835.000000pt" viewBox="0 0 2757.000000 1835.000000"
 preserveAspectRatio="xMidYMid meet">
<metadata>
Created by potrace 1.16, written by Peter Selinger 2001-2019
</metadata>
<g transform="translate(0.000000,1835.000000) scale(0.100000,-0.100000)"
fill="#000000" stroke="none">
<path d="M0 9180 l0 -9170 13780 0 13780 0 0 9170 0 9170 -13780 0 -13780 0 0
-9170z m13566 4627 c69 -32 112 -72 143 -132 18 -36 156 -553 821 -3085 280
-1068 400 -1523 405 -1537 2 -6 -201 -366 -451 -800 -1304 -2258 -1538 -2662
-1541 -2660 -1 2 189 448 423 992 l424 990 -17 73 -17 72 -1166 0 -1167 0 -51
-202 c-29 -112 -106 -417 -172 -678 -66 -261 -127 -500 -136 -530 -20 -67 -72
-123 -129 -139 -58 -16 -1278 -14 -1324 2 -19 7 -44 25 -55 40 -37 51 -28 128
52 427 39 146 233 884 432 1640 199 756 383 1458 410 1560 56 209 320 1216
715 2720 146 558 275 1038 286 1067 24 61 77 125 131 159 85 54 71 53 1033 51
l890 -2 61 -28z m4103 -798 c-188 -437 -344 -802 -346 -811 -4 -15 13 -17 184
-20 177 -3 191 -4 238 -28 59 -29 90 -72 105 -143 7 -37 10 -895 7 -2932 -3
-2598 -5 -2891 -19 -2990 -72 -482 -214 -793 -493 -1070 -283 -282 -601 -428
-1090 -497 -68 -10 -308 -13 -965 -13 -859 0 -877 0 -1015 23 -259 41 -424 91
-620 188 -161 80 -292 172 -410 289 -93 92 -185 204 -185 225 0 7 120 220 267
474 453 785 671 1163 791 1371 63 110 118 204 123 209 5 6 9 -177 9 -430 0
-536 11 -629 90 -784 33 -64 116 -142 190 -178 153 -74 269 -85 845 -79 367 4
463 7 520 21 253 58 360 164 423 416 15 59 17 288 22 2375 l5 2310 391 675
c214 371 588 1018 830 1437 241 418 440 760 442 758 1 -1 -151 -360 -339 -796z"/>
<path d="M12145 10686 c-234 -941 -428 -1719 -431 -1728 -5 -17 42 -18 881
-18 706 0 886 3 882 13 -2 6 -196 784 -431 1728 -418 1678 -428 1717 -451
1717 -23 0 -33 -39 -450 -1712z"/>
</g>
</svg>
